<svg width="74" height="69" viewBox="0 0 74 69" fill="none" xmlns="http://www.w3.org/2000/svg">
<path d="M25.5859 15.4072H32.8027V48.4443C32.8027 48.874 33.1543 49.2255 33.584 49.2255H39.4434C39.8731 49.2255 40.2246 48.874 40.2246 48.4443V15.4072H47.4609C48.1152 15.4072 48.4766 14.6552 48.0762 14.1474L37.1387 0.299755C37.0656 0.206378 36.9722 0.130861 36.8656 0.0789255C36.759 0.0269905 36.642 0 36.5234 0C36.4049 0 36.2878 0.0269905 36.1813 0.0789255C36.0747 0.130861 35.9813 0.206378 35.9082 0.299755L24.9707 14.1376C24.5703 14.6552 24.9316 15.4072 25.5859 15.4072ZM72.2656 45.5146H66.4062C65.9766 45.5146 65.625 45.8662 65.625 46.2958V61.3349H7.42188V46.2958C7.42188 45.8662 7.07031 45.5146 6.64062 45.5146H0.78125C0.351562 45.5146 0 45.8662 0 46.2958V65.6318C0 67.3603 1.39648 68.7568 3.125 68.7568H69.9219C71.6504 68.7568 73.0469 67.3603 73.0469 65.6318V46.2958C73.0469 45.8662 72.6953 45.5146 72.2656 45.5146Z" fill="#4B4B4B"/>
</svg>
